<svg xmlns="http://www.w3.org/2000/svg" width="1280" height="380" viewBox="0 0 1280 380" role="img" aria-label="Eduardo Rodríguez Ávila, físico e ingeniero de IA">
<defs>
  <radialGradient id="glow" cx="0.86" cy="0.15" r="0.7"><stop offset="0" stop-color="#1c2f57" stop-opacity=".75"/><stop offset="1" stop-color="#0b0d10" stop-opacity="0"/></radialGradient>
  <linearGradient id="name" x1="0" x2="1"><stop offset="0" stop-color="#5b8cff"/><stop offset="1" stop-color="#8fb0ff"/></linearGradient>
  <linearGradient id="fade" x1="0" x2="1"><stop offset="0" stop-color="#0b0d10" stop-opacity="1"/><stop offset="1" stop-color="#0b0d10" stop-opacity="0"/></linearGradient>
  <pattern id="dots" width="26" height="26" patternUnits="userSpaceOnUse"><circle cx="1.5" cy="1.5" r="1" fill="#1a2027"/></pattern>
  <clipPath id="card"><rect width="1280" height="380" rx="18"/></clipPath>
</defs>
<g clip-path="url(#card)">
  <rect width="1280" height="380" fill="#0b0d10"/>
  <rect width="1280" height="380" fill="url(#dots)"/>
  <rect width="1280" height="380" fill="url(#glow)"/>
  <g fill="none" stroke="#243044" opacity=".8">
    <circle cx="1040" cy="178" r="70"/><circle cx="1040" cy="178" r="130"/><circle cx="1040" cy="178" r="190"/>
  </g>
  <line x1="880" y1="178" x2="1230" y2="178" stroke="#2a3340" stroke-dasharray="4 6"/>
  <path d="M880.0,178.0 L882.4,167.0 L884.9,156.6 L887.3,147.1 L889.7,138.4 L892.1,130.9 L894.6,124.6 L897.0,119.6 L899.4,116.0 L901.9,113.7 L904.3,112.9 L906.7,113.4 L909.1,115.2 L911.6,118.3 L914.0,122.5 L916.4,127.7 L918.9,133.7 L921.3,140.4 L923.7,147.7 L926.1,155.4 L928.6,163.3 L931.0,171.2 L933.4,179.0 L935.9,186.5 L938.3,193.5 L940.7,200.0 L943.1,205.9 L945.6,211.0 L948.0,215.2 L950.4,218.5 L952.9,220.9 L955.3,222.3 L957.7,222.8 L960.1,222.3 L962.6,220.9 L965.0,218.7 L967.4,215.7 L969.9,212.1 L972.3,207.9 L974.7,203.2 L977.1,198.2 L979.6,192.9 L982.0,187.4 L984.4,182.0 L986.9,176.7 L989.3,171.6 L991.7,166.7 L994.1,162.3 L996.6,158.4 L999.0,154.9 L1001.4,152.1 L1003.9,149.9 L1006.3,148.4 L1008.7,147.5 L1011.1,147.2 L1013.6,147.6 L1016.0,148.7 L1018.4,150.2 L1020.9,152.3 L1023.3,154.9 L1025.7,157.8 L1028.1,161.1 L1030.6,164.6 L1033.0,168.2 L1035.4,172.0 L1037.9,175.7 L1040.3,179.4 L1042.7,182.9 L1045.1,186.1 L1047.6,189.1 L1050.0,191.8 L1052.4,194.1 L1054.9,196.0 L1057.3,197.5 L1059.7,198.5 L1062.1,199.0 L1064.6,199.1 L1067.0,198.8 L1069.4,198.0 L1071.9,196.9 L1074.3,195.4 L1076.7,193.6 L1079.1,191.6 L1081.6,189.3 L1084.0,186.9 L1086.4,184.4 L1088.9,181.8 L1091.3,179.3 L1093.7,176.8 L1096.1,174.4 L1098.6,172.1 L1101.0,170.1 L1103.4,168.3 L1105.9,166.8 L1108.3,165.5 L1110.7,164.5 L1113.1,163.9 L1115.6,163.5 L1118.0,163.5 L1120.4,163.8 L1122.9,164.3 L1125.3,165.1 L1127.7,166.2 L1130.1,167.4 L1132.6,168.9 L1135.0,170.4 L1137.4,172.1 L1139.9,173.8 L1142.3,175.6 L1144.7,177.4 L1147.1,179.1 L1149.6,180.7 L1152.0,182.2 L1154.4,183.6 L1156.9,184.8 L1159.3,185.9 L1161.7,186.7 L1164.1,187.3 L1166.6,187.8 L1169.0,188.0 L1171.4,188.0 L1173.9,187.8 L1176.3,187.4 L1178.7,186.8 L1181.1,186.0 L1183.6,185.2 L1186.0,184.2 L1188.4,183.1 L1190.9,181.9 L1193.3,180.7 L1195.7,179.5 L1198.1,178.3 L1200.6,177.1 L1203.0,176.0 L1205.4,175.0 L1207.9,174.0 L1210.3,173.2 L1212.7,172.5 L1215.1,172.0 L1217.6,171.5 L1220.0,171.3" fill="none" stroke="#5b8cff" stroke-width="2.4" stroke-linecap="round" stroke-linejoin="round"/>
  <circle cx="917.4" cy="130.0" r="5.5" fill="#ffb454"><animate attributeName="r" values="5.5;8;5.5" dur="2.8s" repeatCount="indefinite"/></circle>
  <text x="1230" y="120" text-anchor="end" font-family="ui-monospace, 'SF Mono', Menlo, Consolas, 'Liberation Mono', monospace" font-size="14" fill="#3b4656">ψ(t) = e^(−γt) · sin(ωt)</text>

  <text x="72" y="92" font-family="ui-monospace, 'SF Mono', Menlo, Consolas, 'Liberation Mono', monospace" font-size="15" letter-spacing="3.2" fill="#6b7480">FÍSICO · INGENIERO DE IA</text>
  <text x="72" y="172" font-family="Inter, -apple-system, 'Segoe UI', 'Helvetica Neue', Arial, sans-serif" font-size="62" font-weight="800" letter-spacing="-1.2" fill="#e7ecf1">Eduardo <tspan fill="url(#name)">Rodríguez Ávila</tspan></text>
  <text x="72" y="224" font-family="Inter, -apple-system, 'Segoe UI', 'Helvetica Neue', Arial, sans-serif" font-size="26" fill="#9aa3ae">Plataformas de IA que funcionan en producción.</text>
  <rect x="72" y="262" width="66" height="34" rx="17.0" fill="#14181d" stroke="#232a33"/><text x="105.0" y="284.25" text-anchor="middle" font-family="ui-monospace, 'SF Mono', Menlo, Consolas, 'Liberation Mono', monospace" font-size="15" fill="#9aa3ae">LLMs</text><rect x="148" y="262" width="57" height="34" rx="17.0" fill="#14181d" stroke="#232a33"/><text x="176.5" y="284.25" text-anchor="middle" font-family="ui-monospace, 'SF Mono', Menlo, Consolas, 'Liberation Mono', monospace" font-size="15" fill="#9aa3ae">RAG</text><rect x="215" y="262" width="93" height="34" rx="17.0" fill="#14181d" stroke="#232a33"/><text x="261.5" y="284.25" text-anchor="middle" font-family="ui-monospace, 'SF Mono', Menlo, Consolas, 'Liberation Mono', monospace" font-size="15" fill="#9aa3ae">Agentes</text><rect x="318" y="262" width="84" height="34" rx="17.0" fill="#14181d" stroke="#232a33"/><text x="360.0" y="284.25" text-anchor="middle" font-family="ui-monospace, 'SF Mono', Menlo, Consolas, 'Liberation Mono', monospace" font-size="15" fill="#9aa3ae">Python</text><rect x="412" y="262" width="93" height="34" rx="17.0" fill="#14181d" stroke="#232a33"/><text x="458.5" y="284.25" text-anchor="middle" font-family="ui-monospace, 'SF Mono', Menlo, Consolas, 'Liberation Mono', monospace" font-size="15" fill="#9aa3ae">FastAPI</text><rect x="515" y="262" width="84" height="34" rx="17.0" fill="#14181d" stroke="#232a33"/><text x="557.0" y="284.25" text-anchor="middle" font-family="ui-monospace, 'SF Mono', Menlo, Consolas, 'Liberation Mono', monospace" font-size="15" fill="#9aa3ae">Docker</text>

  <line x1="72" y1="322" x2="1208" y2="322" stroke="#1d232b"/>
  <circle cx="80" cy="348" r="5" fill="#4ade80"/>
  <text x="96" y="353" font-family="ui-monospace, 'SF Mono', Menlo, Consolas, 'Liberation Mono', monospace" font-size="15" fill="#9aa3ae">Fundador de ILC-HUB</text>
  <text x="1208" y="353" text-anchor="end" font-family="ui-monospace, 'SF Mono', Menlo, Consolas, 'Liberation Mono', monospace" font-size="15" fill="#6b7480">Ciudad de México · eravila.dev</text>
</g>
</svg>