<svg xmlns="http://www.w3.org/2000/svg" width="830" height="252" viewBox="0 0 830 252" role="img" aria-label="Tech stack">
<rect x=".5" y=".5" width="829" height="251" rx="14" fill="#f0efed" stroke="#d1cdd0"/>
<rect x="24" y="36" width="10" height="10" fill="#c98a1d"/><text x="44" y="46" font-family="ui-monospace, 'SF Mono', Menlo, Consolas, 'Liberation Mono', monospace" font-size="13" letter-spacing="1.6" fill="#67646b">AI</text><rect x="170.5" y="24.5" width="65" height="33" rx="17.0" fill="#f9f8f7" stroke="#d1cdd0"/><text x="203.0" y="46.25" text-anchor="middle" font-family="ui-monospace, 'SF Mono', Menlo, Consolas, 'Liberation Mono', monospace" font-size="15" fill="#0d0c10">LLMs</text><rect x="246.5" y="24.5" width="56" height="33" rx="17.0" fill="#f9f8f7" stroke="#d1cdd0"/><text x="274.5" y="46.25" text-anchor="middle" font-family="ui-monospace, 'SF Mono', Menlo, Consolas, 'Liberation Mono', monospace" font-size="15" fill="#0d0c10">RAG</text><rect x="313.5" y="24.5" width="128" height="33" rx="17.0" fill="#f9f8f7" stroke="#d1cdd0"/><text x="377.5" y="46.25" text-anchor="middle" font-family="ui-monospace, 'SF Mono', Menlo, Consolas, 'Liberation Mono', monospace" font-size="15" fill="#0d0c10">Code agents</text><rect x="452.5" y="24.5" width="119" height="33" rx="17.0" fill="#f9f8f7" stroke="#d1cdd0"/><text x="512.0" y="46.25" text-anchor="middle" font-family="ui-monospace, 'SF Mono', Menlo, Consolas, 'Liberation Mono', monospace" font-size="15" fill="#0d0c10">OpenAI API</text><rect x="582.5" y="24.5" width="92" height="33" rx="17.0" fill="#f9f8f7" stroke="#d1cdd0"/><text x="628.5" y="46.25" text-anchor="middle" font-family="ui-monospace, 'SF Mono', Menlo, Consolas, 'Liberation Mono', monospace" font-size="15" fill="#0d0c10">XGBoost</text><rect x="685.5" y="24.5" width="65" height="33" rx="17.0" fill="#f9f8f7" stroke="#d1cdd0"/><text x="718.0" y="46.25" text-anchor="middle" font-family="ui-monospace, 'SF Mono', Menlo, Consolas, 'Liberation Mono', monospace" font-size="15" fill="#0d0c10">SHAP</text><rect x="24" y="92" width="10" height="10" fill="#c98a1d"/><text x="44" y="102" font-family="ui-monospace, 'SF Mono', Menlo, Consolas, 'Liberation Mono', monospace" font-size="13" letter-spacing="1.6" fill="#67646b">BACKEND</text><rect x="170.5" y="80.5" width="83" height="33" rx="17.0" fill="#f9f8f7" stroke="#d1cdd0"/><text x="212.0" y="102.25" text-anchor="middle" font-family="ui-monospace, 'SF Mono', Menlo, Consolas, 'Liberation Mono', monospace" font-size="15" fill="#0d0c10">Python</text><rect x="264.5" y="80.5" width="92" height="33" rx="17.0" fill="#f9f8f7" stroke="#d1cdd0"/><text x="310.5" y="102.25" text-anchor="middle" font-family="ui-monospace, 'SF Mono', Menlo, Consolas, 'Liberation Mono', monospace" font-size="15" fill="#0d0c10">FastAPI</text><rect x="367.5" y="80.5" width="101" height="33" rx="17.0" fill="#f9f8f7" stroke="#d1cdd0"/><text x="418.0" y="102.25" text-anchor="middle" font-family="ui-monospace, 'SF Mono', Menlo, Consolas, 'Liberation Mono', monospace" font-size="15" fill="#0d0c10">Pydantic</text><rect x="479.5" y="80.5" width="92" height="33" rx="17.0" fill="#f9f8f7" stroke="#d1cdd0"/><text x="525.5" y="102.25" text-anchor="middle" font-family="ui-monospace, 'SF Mono', Menlo, Consolas, 'Liberation Mono', monospace" font-size="15" fill="#0d0c10">MongoDB</text><rect x="24" y="148" width="10" height="10" fill="#c98a1d"/><text x="44" y="158" font-family="ui-monospace, 'SF Mono', Menlo, Consolas, 'Liberation Mono', monospace" font-size="13" letter-spacing="1.6" fill="#67646b">FRONTEND</text><rect x="170.5" y="136.5" width="74" height="33" rx="17.0" fill="#f9f8f7" stroke="#d1cdd0"/><text x="207.5" y="158.25" text-anchor="middle" font-family="ui-monospace, 'SF Mono', Menlo, Consolas, 'Liberation Mono', monospace" font-size="15" fill="#0d0c10">React</text><rect x="255.5" y="136.5" width="119" height="33" rx="17.0" fill="#f9f8f7" stroke="#d1cdd0"/><text x="315.0" y="158.25" text-anchor="middle" font-family="ui-monospace, 'SF Mono', Menlo, Consolas, 'Liberation Mono', monospace" font-size="15" fill="#0d0c10">TypeScript</text><rect x="385.5" y="136.5" width="74" height="33" rx="17.0" fill="#f9f8f7" stroke="#d1cdd0"/><text x="422.5" y="158.25" text-anchor="middle" font-family="ui-monospace, 'SF Mono', Menlo, Consolas, 'Liberation Mono', monospace" font-size="15" fill="#0d0c10">Astro</text><rect x="24" y="204" width="10" height="10" fill="#c98a1d"/><text x="44" y="214" font-family="ui-monospace, 'SF Mono', Menlo, Consolas, 'Liberation Mono', monospace" font-size="13" letter-spacing="1.6" fill="#67646b">OPERATIONS</text><rect x="170.5" y="192.5" width="83" height="33" rx="17.0" fill="#f9f8f7" stroke="#d1cdd0"/><text x="212.0" y="214.25" text-anchor="middle" font-family="ui-monospace, 'SF Mono', Menlo, Consolas, 'Liberation Mono', monospace" font-size="15" fill="#0d0c10">Docker</text><rect x="264.5" y="192.5" width="74" height="33" rx="17.0" fill="#f9f8f7" stroke="#d1cdd0"/><text x="301.5" y="214.25" text-anchor="middle" font-family="ui-monospace, 'SF Mono', Menlo, Consolas, 'Liberation Mono', monospace" font-size="15" fill="#0d0c10">CI/CD</text><rect x="349.5" y="192.5" width="92" height="33" rx="17.0" fill="#f9f8f7" stroke="#d1cdd0"/><text x="395.5" y="214.25" text-anchor="middle" font-family="ui-monospace, 'SF Mono', Menlo, Consolas, 'Liberation Mono', monospace" font-size="15" fill="#0d0c10">Railway</text>
</svg>